<svg id="svg" version="1.1" width="400" height="347.49403341288786" viewBox="0 0 400 347.49403341288786" xmlns="http://www.w3.org/2000/svg" xmlns:xlink="http://www.w3.org/1999/xlink" ><g id="svgg"><path id="path0" d="M179.322 1.299 C 179.036 1.410,176.142 2.787,172.893 4.361 C 169.644 5.934,165.812 7.766,164.379 8.432 C 160.523 10.223,154.755 12.974,149.262 15.642 C 141.927 19.205,135.511 22.242,135.320 22.242 C 135.227 22.242,134.575 22.632,133.871 23.110 C 133.168 23.588,132.313 23.979,131.972 23.979 C 131.630 23.979,130.767 24.345,130.054 24.793 C 129.341 25.241,127.428 26.197,125.804 26.918 C 124.179 27.639,122.653 28.476,122.414 28.779 C 121.956 29.356,121.740 235.284,122.195 236.471 C 122.454 237.144,123.480 237.138,125.282 236.451 C 126.047 236.160,127.142 235.792,127.715 235.633 C 128.288 235.474,130.791 234.612,133.275 233.717 C 135.760 232.822,138.184 231.956,138.662 231.793 C 139.140 231.631,140.860 230.994,142.485 230.378 C 144.109 229.762,146.377 228.922,147.524 228.510 C 148.671 228.098,150.372 227.418,151.304 227.000 C 152.236 226.581,153.116 226.238,153.259 226.238 C 153.531 226.238,156.064 225.149,159.798 223.428 C 161.006 222.871,162.137 222.415,162.311 222.415 C 162.486 222.415,163.687 221.929,164.980 221.335 C 166.274 220.741,168.115 219.905,169.070 219.478 C 175.574 216.572,180.610 214.095,181.018 213.604 C 181.423 213.117,181.624 2.022,181.221 1.369 C 181.001 1.013,180.145 0.981,179.322 1.299 M280.616 1.519 C 279.973 1.965,270.709 6.408,264.118 9.431 C 262.493 10.176,260.851 10.965,260.469 11.185 C 259.438 11.776,256.880 13.028,254.909 13.905 C 253.953 14.331,251.373 15.546,249.175 16.607 C 237.466 22.256,234.404 23.728,230.756 25.461 C 228.558 26.505,226.176 27.632,225.462 27.965 C 224.514 28.408,224.094 28.864,223.898 29.663 C 223.342 31.943,223.765 189.754,224.329 189.971 C 225.174 190.295,245.405 177.462,258.558 168.258 C 260.756 166.720,263.571 164.753,264.813 163.886 C 271.630 159.131,280.781 152.211,282.425 150.567 L 283.573 149.418 283.578 75.702 C 283.581 21.527,283.479 1.861,283.191 1.514 C 282.688 0.909,281.492 0.910,280.616 1.519 " stroke="none" fill="#94c324" fill-rule="evenodd"></path><path id="path1" d="M282.537 207.790 C 282.537 207.997,282.243 208.167,281.884 208.167 C 281.526 208.167,281.037 208.401,280.799 208.688 C 280.561 208.975,280.164 209.209,279.916 209.209 C 279.369 209.209,277.196 210.323,277.034 210.686 C 276.971 210.830,276.536 210.947,276.068 210.947 C 275.600 210.947,275.127 211.182,275.017 211.468 C 274.907 211.755,274.540 211.990,274.202 211.990 C 273.863 211.990,273.392 212.224,273.154 212.511 C 272.916 212.798,272.447 213.032,272.111 213.032 C 271.776 213.032,271.314 213.257,271.086 213.533 C 270.857 213.808,270.448 213.948,270.177 213.844 C 269.906 213.740,269.588 213.906,269.471 214.212 C 269.353 214.519,268.878 214.770,268.414 214.770 C 267.951 214.770,267.482 215.004,267.372 215.291 C 267.262 215.578,266.895 215.812,266.556 215.812 C 266.218 215.812,265.746 216.047,265.508 216.334 C 265.270 216.620,264.801 216.855,264.466 216.855 C 264.130 216.855,263.661 217.089,263.423 217.376 C 263.185 217.663,262.697 217.897,262.338 217.897 C 261.979 217.897,261.685 218.054,261.685 218.245 C 261.685 218.436,261.384 218.593,261.015 218.593 C 260.647 218.593,260.110 218.827,259.824 219.114 C 259.537 219.401,259.076 219.635,258.799 219.635 C 258.522 219.635,258.101 219.870,257.863 220.156 C 257.625 220.443,257.156 220.678,256.820 220.678 C 256.485 220.678,256.016 220.912,255.778 221.199 C 255.540 221.486,255.051 221.720,254.692 221.720 C 254.334 221.720,254.040 221.877,254.040 222.068 C 254.040 222.259,253.738 222.415,253.370 222.415 C 253.001 222.415,252.465 222.650,252.178 222.937 C 251.892 223.223,251.446 223.458,251.188 223.458 C 250.930 223.458,249.496 224.083,248.001 224.848 C 246.506 225.613,245.005 226.238,244.665 226.238 C 244.325 226.238,243.852 226.473,243.614 226.759 C 243.376 227.046,242.907 227.281,242.572 227.281 C 242.236 227.281,241.767 227.515,241.529 227.802 C 241.291 228.089,240.895 228.323,240.650 228.323 C 240.254 228.323,238.551 229.080,235.506 230.609 C 234.965 230.881,234.241 231.103,233.898 231.103 C 233.555 231.103,233.079 231.338,232.841 231.625 C 232.603 231.911,232.128 232.146,231.785 232.146 C 231.442 232.146,231.109 232.304,231.044 232.497 C 230.980 232.690,230.548 232.921,230.085 233.010 C 229.622 233.099,229.153 233.293,229.044 233.441 C 228.812 233.753,226.800 234.562,225.554 234.843 C 223.327 235.345,223.491 231.222,223.477 287.228 C 223.470 315.135,223.590 338.163,223.744 338.403 C 223.965 338.749,230.192 338.821,253.714 338.751 L 283.406 338.662 283.406 273.183 C 283.406 221.108,283.317 207.674,282.971 207.559 C 282.732 207.479,282.537 207.583,282.537 207.790 M180.557 252.620 C 180.429 252.827,179.805 252.997,179.171 252.997 C 178.536 252.997,177.823 253.232,177.585 253.519 C 177.347 253.805,176.721 254.040,176.195 254.040 C 175.668 254.040,175.042 254.275,174.805 254.561 C 174.567 254.848,173.844 255.083,173.198 255.083 C 172.553 255.083,172.024 255.239,172.024 255.430 C 172.024 255.621,171.496 255.778,170.851 255.778 C 170.205 255.778,169.482 256.012,169.244 256.299 C 169.006 256.586,168.302 256.820,167.680 256.820 C 167.058 256.820,166.354 257.055,166.116 257.341 C 165.878 257.628,165.273 257.868,164.771 257.875 C 164.268 257.882,163.467 258.111,162.989 258.384 C 162.511 258.657,161.708 258.886,161.204 258.893 C 160.700 258.900,159.840 259.139,159.293 259.424 C 158.745 259.710,157.954 259.945,157.536 259.946 C 157.117 259.947,156.678 260.104,156.560 260.295 C 156.441 260.487,155.837 260.643,155.215 260.643 C 154.594 260.643,153.782 260.873,153.411 261.153 C 153.040 261.434,152.189 261.673,151.520 261.685 C 150.851 261.698,150.001 261.937,149.629 262.218 C 149.258 262.498,148.368 262.728,147.652 262.728 C 146.935 262.728,146.252 262.884,146.134 263.076 C 146.016 263.267,145.342 263.428,144.636 263.434 C 143.931 263.440,143.050 263.675,142.679 263.955 C 142.308 264.236,141.360 264.466,140.573 264.466 C 139.786 264.466,138.839 264.695,138.468 264.976 C 138.097 265.257,137.225 265.491,136.530 265.497 C 135.835 265.503,134.818 265.742,134.271 266.027 C 133.723 266.313,132.620 266.548,131.819 266.549 C 131.018 266.550,130.266 266.707,130.148 266.898 C 130.030 267.089,129.113 267.246,128.112 267.246 C 127.110 267.246,126.102 267.434,125.872 267.664 C 125.641 267.895,124.711 268.168,123.804 268.273 L 122.155 268.462 122.155 303.562 L 122.155 338.662 151.482 338.751 C 172.692 338.815,180.940 338.732,181.278 338.452 C 181.666 338.129,181.732 330.830,181.664 295.548 C 181.583 253.886,181.511 251.077,180.557 252.620 " stroke="none" fill="#06933e" fill-rule="evenodd"></path><path id="path2" d="M180.746 0.481 C 180.438 0.851,180.468 1.008,180.877 1.165 C 181.242 1.305,181.407 1.155,181.407 0.684 C 181.407 -0.126,181.282 -0.165,180.746 0.481 M382.276 111.397 C 380.269 111.650,377.018 111.867,375.051 111.880 C 373.085 111.892,370.035 112.059,368.275 112.250 C 364.943 112.611,356.562 113.121,345.265 113.652 C 341.633 113.822,337.567 114.119,336.229 114.311 C 334.891 114.503,331.998 114.667,329.800 114.674 C 327.602 114.682,323.933 114.922,321.647 115.207 C 319.360 115.492,315.998 115.724,314.175 115.722 C 305.814 115.712,301.842 116.580,303.160 118.131 C 303.416 118.433,304.778 120.556,306.186 122.850 C 307.594 125.143,309.081 127.489,309.491 128.063 C 309.901 128.636,310.344 129.340,310.475 129.626 C 310.828 130.397,311.457 131.415,312.337 132.641 C 312.767 133.240,313.119 133.872,313.119 134.045 C 313.119 134.553,310.446 137.130,306.880 140.059 C 305.837 140.915,304.586 141.988,304.100 142.443 C 303.223 143.263,296.569 148.830,294.487 150.486 C 293.893 150.959,291.860 152.588,289.970 154.105 C 283.038 159.671,278.114 163.477,276.591 164.448 C 276.092 164.766,275.464 165.232,275.196 165.484 C 274.928 165.736,273.929 166.482,272.975 167.141 C 272.022 167.800,271.164 168.433,271.069 168.548 C 270.973 168.663,269.606 169.658,268.031 170.760 C 266.456 171.862,264.966 172.949,264.721 173.176 C 264.476 173.403,263.497 174.122,262.546 174.774 C 261.595 175.426,259.566 176.823,258.036 177.879 C 251.167 182.621,237.367 191.705,233.933 193.745 C 233.611 193.936,232.882 194.419,232.313 194.817 C 231.743 195.216,231.043 195.648,230.756 195.777 C 230.469 195.906,229.765 196.320,229.192 196.698 C 228.619 197.076,227.915 197.505,227.628 197.650 C 227.341 197.796,226.481 198.322,225.717 198.819 C 224.596 199.549,220.796 201.801,216.104 204.518 C 214.755 205.299,210.527 207.641,207.646 209.203 C 206.499 209.825,205.404 210.454,205.213 210.600 C 205.022 210.747,203.380 211.646,201.564 212.598 C 193.262 216.954,191.197 218.029,189.574 218.842 C 188.619 219.321,187.602 219.852,187.315 220.023 C 187.029 220.195,186.560 220.432,186.273 220.552 C 185.986 220.672,183.719 221.748,181.234 222.944 C 174.040 226.406,170.967 227.836,168.549 228.848 C 167.307 229.368,165.586 230.105,164.726 230.485 C 163.866 230.866,162.615 231.418,161.946 231.713 C 161.277 232.007,160.484 232.365,160.184 232.509 C 159.884 232.652,158.398 233.268,156.883 233.878 C 155.367 234.487,153.032 235.433,151.694 235.980 C 150.356 236.527,148.167 237.384,146.829 237.885 C 145.491 238.385,143.810 239.019,143.093 239.293 C 136.974 241.632,134.341 242.572,133.904 242.572 C 133.685 242.572,133.063 242.791,132.522 243.059 C 131.981 243.327,130.678 243.812,129.626 244.136 C 128.575 244.461,126.699 245.078,125.456 245.509 C 123.119 246.318,121.215 246.916,117.637 247.966 C 116.490 248.302,115.239 248.709,114.857 248.870 C 114.474 249.031,113.536 249.308,112.772 249.486 C 112.007 249.664,110.521 250.066,109.470 250.379 C 108.419 250.692,107.011 251.080,106.342 251.242 C 105.673 251.404,102.780 252.112,99.913 252.817 C 97.046 253.521,93.840 254.303,92.789 254.556 C 91.738 254.808,90.096 255.208,89.140 255.445 C 87.281 255.904,85.790 256.179,81.679 256.820 C 80.251 257.043,78.815 257.368,78.487 257.544 C 78.159 257.719,77.293 257.863,76.563 257.863 C 75.832 257.863,74.688 258.034,74.020 258.244 C 73.353 258.453,71.712 258.753,70.374 258.910 C 69.036 259.067,66.690 259.375,65.161 259.594 C 55.645 260.954,52.083 261.306,43.857 261.696 C 40.167 261.871,37.017 262.096,36.857 262.195 C 36.696 262.294,32.096 262.383,26.635 262.392 C 17.616 262.406,14.459 262.694,17.275 263.245 C 17.809 263.349,18.871 263.598,19.635 263.799 C 20.400 263.999,21.651 264.297,22.415 264.459 C 23.180 264.622,24.744 265.011,25.891 265.324 C 27.037 265.638,28.523 266.022,29.192 266.180 C 31.105 266.629,33.563 267.211,35.361 267.639 C 37.644 268.183,39.772 268.605,42.224 268.999 C 43.371 269.184,44.763 269.490,45.317 269.680 C 45.871 269.871,46.966 270.029,47.750 270.031 C 48.533 270.034,50.113 270.263,51.260 270.540 C 52.407 270.817,54.127 271.054,55.083 271.067 C 56.038 271.080,58.384 271.317,60.295 271.594 C 65.314 272.321,90.529 272.317,95.365 271.588 C 97.260 271.302,99.762 271.065,100.925 271.060 C 102.089 271.056,103.666 270.893,104.431 270.699 C 105.195 270.506,107.150 270.198,108.775 270.015 C 110.400 269.833,113.136 269.445,114.857 269.153 C 121.019 268.107,121.239 268.102,121.572 269.001 L 121.868 269.801 122.138 268.958 C 122.287 268.494,122.430 267.958,122.455 267.767 C 122.524 267.254,124.817 267.122,125.121 267.614 C 125.317 267.930,125.580 267.894,126.191 267.466 C 126.636 267.154,126.849 266.896,126.663 266.893 C 126.477 266.890,126.560 266.729,126.846 266.534 C 127.153 266.326,128.511 266.258,130.148 266.367 C 132.399 266.518,132.763 266.478,132.059 266.157 L 131.190 265.762 132.059 265.496 C 133.522 265.048,134.144 265.125,134.144 265.752 C 134.144 266.211,134.237 266.250,134.561 265.925 C 134.791 265.696,135.299 265.490,135.691 265.468 C 136.277 265.435,136.295 265.399,135.795 265.269 C 134.799 265.008,135.102 264.513,136.407 264.268 C 137.140 264.131,137.816 264.196,138.100 264.432 C 138.420 264.697,138.839 264.717,139.399 264.493 C 139.854 264.311,139.991 264.150,139.705 264.135 C 139.241 264.111,139.241 264.070,139.705 263.771 C 140.423 263.306,141.914 263.339,142.404 263.829 C 142.713 264.138,142.868 264.076,143.056 263.568 C 143.449 262.506,143.922 262.350,146.049 262.580 C 147.727 262.762,148.018 262.714,147.853 262.284 C 147.629 261.700,149.401 261.078,149.750 261.618 C 149.864 261.794,150.269 261.814,150.652 261.662 C 151.034 261.511,151.151 261.376,150.912 261.362 C 150.673 261.349,150.478 261.199,150.478 261.028 C 150.478 260.536,152.167 260.245,152.861 260.617 C 153.561 260.991,155.089 260.728,154.813 260.281 C 154.570 259.888,156.074 259.453,156.342 259.838 C 156.462 260.010,157.029 260.045,157.602 259.917 C 158.175 259.788,158.358 259.664,158.008 259.641 C 156.250 259.528,157.848 258.737,159.724 258.792 C 160.850 258.825,161.499 258.775,161.164 258.680 C 160.181 258.400,160.467 257.863,161.599 257.863 C 162.172 257.863,162.641 258.016,162.641 258.203 C 162.641 258.413,162.963 258.396,163.482 258.160 C 164.008 257.920,164.251 257.585,164.129 257.267 C 163.978 256.875,164.204 256.774,165.112 256.825 C 166.913 256.925,167.159 256.862,167.159 256.299 C 167.159 255.975,167.487 255.778,168.028 255.778 C 168.506 255.778,168.897 255.965,168.897 256.195 C 168.897 256.764,169.762 255.905,169.773 255.326 C 169.778 255.042,170.387 254.938,171.684 255.001 C 172.999 255.065,173.430 254.990,173.077 254.759 C 172.490 254.376,172.594 254.218,173.646 253.895 C 174.060 253.768,174.495 253.820,174.613 254.011 C 174.917 254.503,175.838 254.074,175.632 253.536 C 175.428 253.005,176.858 252.545,177.393 252.969 C 177.843 253.326,179.069 252.921,178.914 252.467 C 178.852 252.286,179.075 252.085,179.409 252.021 C 179.795 251.947,180.017 252.119,180.017 252.493 C 180.017 252.947,180.125 252.993,180.484 252.695 C 181.050 252.226,181.399 252.518,181.432 253.490 C 181.456 254.201,181.461 254.202,181.746 253.519 C 181.906 253.136,181.963 252.501,181.874 252.106 C 181.730 251.468,182.130 251.248,185.469 250.133 C 190.063 248.600,191.043 248.256,193.918 247.171 C 195.161 246.702,196.803 246.088,197.567 245.807 C 198.332 245.526,199.400 245.074,199.941 244.803 C 200.482 244.531,201.134 244.309,201.390 244.309 C 201.646 244.309,202.298 244.087,202.839 243.815 C 203.380 243.543,204.917 242.894,206.255 242.374 C 209.172 241.239,210.765 240.592,212.163 239.975 C 214.564 238.915,220.176 236.662,220.413 236.663 C 220.555 236.663,221.571 236.038,222.672 235.274 C 224.545 233.974,226.586 233.425,226.586 234.220 C 226.586 234.405,226.803 234.473,227.068 234.372 C 227.363 234.258,227.477 233.903,227.361 233.459 C 227.186 232.789,227.276 232.749,228.529 232.951 C 229.467 233.101,229.726 233.064,229.366 232.831 C 228.547 232.300,229.631 231.739,231.011 231.980 C 231.950 232.143,232.100 232.082,231.918 231.609 C 231.761 231.199,231.881 231.062,232.358 231.113 C 233.574 231.243,233.865 231.113,233.645 230.538 C 233.464 230.066,233.633 229.996,234.659 230.116 C 235.557 230.221,235.844 230.139,235.719 229.816 C 235.626 229.571,235.839 229.275,236.193 229.158 C 236.548 229.040,237.316 228.733,237.901 228.475 C 238.485 228.217,239.331 228.102,239.779 228.219 C 240.334 228.364,240.518 228.308,240.355 228.044 C 239.945 227.381,242.801 225.707,243.438 226.236 C 243.958 226.668,244.009 226.635,244.092 225.808 C 244.153 225.207,245.268 225.053,245.409 225.626 C 245.505 226.014,245.678 226.019,246.394 225.651 C 247.033 225.324,247.102 225.204,246.655 225.201 C 246.321 225.198,246.047 225.034,246.047 224.837 C 246.047 224.640,246.321 224.394,246.655 224.290 C 246.990 224.187,247.535 223.957,247.867 223.780 C 248.675 223.348,249.522 223.372,249.522 223.826 C 249.522 224.028,249.683 224.095,249.879 223.973 C 250.075 223.852,250.192 223.491,250.140 223.171 C 250.063 222.705,250.310 222.598,251.383 222.632 C 252.123 222.656,252.530 222.556,252.294 222.410 C 251.713 222.051,252.186 221.373,253.018 221.373 C 253.418 221.373,253.704 221.620,253.720 221.981 C 253.736 222.344,253.818 222.414,253.923 222.155 C 254.019 221.916,254.428 221.720,254.830 221.720 C 255.517 221.720,255.524 221.692,254.944 221.268 C 254.412 220.879,254.395 220.757,254.824 220.401 C 255.595 219.761,257.515 219.462,257.515 219.982 C 257.515 220.320,257.626 220.324,258.016 220.000 C 258.291 219.771,258.421 219.336,258.305 219.033 C 258.129 218.575,258.283 218.520,259.228 218.709 C 260.174 218.898,260.392 218.821,260.543 218.243 C 260.766 217.388,261.328 217.330,261.365 218.158 C 261.382 218.521,261.463 218.591,261.568 218.332 C 261.665 218.093,261.984 217.897,262.278 217.897 C 262.694 217.897,262.724 217.791,262.414 217.417 C 262.104 217.043,262.150 216.884,262.626 216.702 C 262.961 216.573,263.288 216.624,263.352 216.815 C 263.416 217.007,263.683 217.081,263.945 216.980 C 264.207 216.880,264.337 216.576,264.233 216.305 C 264.118 216.006,264.263 215.812,264.602 215.812 C 264.909 215.812,265.161 215.988,265.161 216.202 C 265.161 216.479,265.306 216.472,265.661 216.177 C 265.937 215.948,266.084 215.557,265.988 215.307 C 265.885 215.039,266.214 214.695,266.790 214.469 C 267.328 214.258,268.045 213.887,268.385 213.645 C 268.887 213.289,269.058 213.293,269.293 213.670 C 269.510 214.018,269.631 213.945,269.780 213.376 C 269.948 212.734,270.140 212.654,271.044 212.853 C 271.959 213.054,272.078 213.002,271.880 212.487 C 271.687 211.984,271.807 211.917,272.619 212.072 C 273.374 212.216,273.626 212.109,273.762 211.588 C 273.859 211.220,274.191 210.943,274.501 210.973 C 275.597 211.078,275.934 210.941,275.934 210.388 C 275.934 209.971,276.147 209.882,276.770 210.039 C 277.492 210.220,277.579 210.148,277.412 209.507 C 277.232 208.821,277.313 208.782,278.482 209.002 C 279.535 209.199,279.712 209.150,279.541 208.703 C 279.408 208.357,279.533 208.167,279.893 208.167 C 280.200 208.167,280.452 208.342,280.452 208.557 C 280.452 208.834,280.597 208.826,280.952 208.531 C 281.228 208.303,281.367 207.893,281.263 207.620 C 281.036 207.030,281.922 206.957,282.907 207.484 C 283.465 207.782,283.579 207.728,283.579 207.167 C 283.579 206.710,284.084 206.247,285.138 205.737 C 285.995 205.322,288.380 204.084,290.438 202.985 C 296.601 199.695,301.016 197.345,303.041 196.278 C 304.092 195.723,305.421 194.994,305.995 194.658 C 306.568 194.321,308.367 193.334,309.991 192.465 C 311.616 191.595,313.493 190.551,314.162 190.145 C 314.831 189.739,315.613 189.316,315.899 189.205 C 316.186 189.094,316.655 188.857,316.942 188.678 C 317.228 188.500,317.698 188.247,317.984 188.116 C 318.271 187.986,319.620 187.205,320.982 186.381 C 322.344 185.557,323.560 184.883,323.683 184.883 C 323.805 184.883,324.568 184.465,325.376 183.955 C 326.185 183.444,327.706 182.557,328.758 181.982 C 329.809 181.408,331.138 180.654,331.712 180.307 C 332.285 179.960,332.989 179.567,333.275 179.435 C 333.562 179.302,334.735 178.623,335.882 177.926 C 342.252 174.052,342.550 173.967,343.828 175.643 C 344.326 176.296,344.933 177.039,345.178 177.294 C 345.763 177.905,349.337 182.764,349.783 183.553 C 349.974 183.892,351.206 185.758,352.521 187.699 C 353.835 189.641,354.987 191.521,355.081 191.879 C 355.174 192.236,355.391 192.528,355.563 192.528 C 355.856 192.528,356.086 192.083,357.628 188.532 C 357.960 187.767,358.801 185.891,359.499 184.361 C 360.196 182.832,360.975 181.112,361.231 180.539 C 361.487 179.965,362.104 178.593,362.603 177.488 C 363.102 176.384,363.510 175.407,363.510 175.317 C 363.510 175.227,363.998 174.098,364.594 172.807 C 365.844 170.098,366.928 167.714,368.029 165.248 C 368.456 164.292,369.099 162.894,369.459 162.142 C 369.819 161.389,370.113 160.660,370.113 160.523 C 370.113 160.385,370.817 158.767,371.677 156.926 C 372.537 155.085,373.241 153.504,373.241 153.412 C 373.241 153.319,373.874 151.879,374.648 150.210 C 376.216 146.832,376.745 145.659,377.509 143.875 C 377.795 143.206,378.451 141.720,378.967 140.573 C 380.545 137.061,380.816 136.447,381.344 135.187 C 381.624 134.518,382.276 133.032,382.793 131.885 C 383.311 130.738,383.967 129.253,384.252 128.584 C 384.537 127.915,385.168 126.507,385.655 125.456 C 386.142 124.405,386.745 123.076,386.993 122.502 C 387.242 121.929,387.751 120.756,388.124 119.896 C 389.158 117.512,391.301 112.846,391.675 112.168 C 391.857 111.836,392.007 111.406,392.007 111.212 C 392.007 110.729,386.799 110.828,382.276 111.397 M121.799 303.562 C 121.799 319.235,121.842 325.596,121.894 317.698 C 121.946 309.799,121.946 296.975,121.894 289.201 C 121.842 281.426,121.799 287.889,121.799 303.562 M121.741 334.839 C 121.743 335.986,121.808 336.413,121.885 335.789 C 121.963 335.164,121.961 334.226,121.882 333.704 C 121.802 333.181,121.739 333.692,121.741 334.839 " stroke="none" fill="#9c9c9c" fill-rule="evenodd"></path><path id="path3" d="M0.000 173.762 L 0.000 347.524 200.000 347.524 L 400.000 347.524 400.000 173.762 L 400.000 0.000 342.050 -0.000 L 284.101 -0.000 284.183 74.537 C 284.240 126.008,284.153 149.318,283.901 149.863 C 283.700 150.297,283.023 151.043,282.397 151.520 C 281.770 151.998,279.082 154.017,276.423 156.006 C 273.765 157.995,271.434 159.793,271.242 160.002 C 271.051 160.211,269.723 161.164,268.290 162.120 C 266.858 163.076,265.477 164.054,265.222 164.294 C 264.967 164.534,264.419 164.912,264.004 165.134 C 263.589 165.356,261.602 166.733,259.589 168.195 C 255.060 171.485,238.502 182.462,232.841 185.927 C 232.554 186.103,230.834 187.137,229.018 188.224 C 227.202 189.312,225.470 190.413,225.168 190.670 C 222.977 192.539,223.110 197.777,223.110 109.644 C 223.110 23.298,223.007 28.300,224.812 27.554 C 226.451 26.877,229.789 25.299,237.988 21.324 C 241.679 19.535,244.760 18.071,244.836 18.071 C 244.964 18.071,250.509 15.414,261.164 10.246 C 263.649 9.041,267.480 7.202,269.679 6.160 C 278.515 1.968,281.842 0.330,281.842 0.169 C 281.842 0.076,259.440 -0.000,232.059 -0.000 L 182.276 -0.000 182.362 106.577 C 182.443 207.582,182.416 213.189,181.841 213.833 C 181.507 214.207,180.608 214.787,179.844 215.122 C 179.079 215.457,177.046 216.390,175.326 217.194 C 171.331 219.063,167.873 220.656,166.985 221.037 C 166.603 221.201,165.556 221.656,164.659 222.049 C 163.761 222.442,162.943 222.763,162.842 222.763 C 162.740 222.763,161.495 223.307,160.076 223.971 C 158.656 224.636,156.659 225.500,155.637 225.892 C 154.615 226.284,153.467 226.741,153.084 226.907 C 151.327 227.671,148.475 228.779,143.180 230.757 C 137.930 232.718,135.245 233.666,126.375 236.695 C 124.682 237.272,122.883 237.697,122.378 237.639 L 121.460 237.533 121.365 133.623 C 121.313 76.473,121.357 29.354,121.463 28.914 C 121.589 28.391,122.167 27.896,123.140 27.479 C 124.611 26.848,128.716 24.898,137.446 20.681 C 144.869 17.095,154.233 12.639,160.209 9.850 C 163.635 8.250,163.869 8.135,165.595 7.208 C 166.169 6.900,167.967 6.028,169.592 5.268 C 176.779 1.910,180.017 0.326,180.017 0.169 C 180.017 0.076,139.513 0.000,90.009 0.000 L 0.000 0.000 0.000 173.762 M392.201 110.961 C 392.296 111.208,391.743 112.699,390.974 114.274 C 390.204 115.849,389.574 117.238,389.574 117.360 C 389.574 117.482,389.126 118.533,388.579 119.695 C 387.510 121.963,387.509 121.966,384.532 128.758 C 383.443 131.242,382.411 133.424,382.240 133.606 C 382.069 133.787,381.929 134.130,381.929 134.367 C 381.929 134.604,381.303 136.146,380.539 137.793 C 379.774 139.441,379.149 140.846,379.149 140.917 C 379.149 140.988,378.669 142.113,378.082 143.416 C 377.495 144.720,376.804 146.255,376.546 146.829 C 376.288 147.402,375.438 149.237,374.659 150.905 C 373.879 152.574,373.241 154.016,373.241 154.110 C 373.241 154.204,372.833 155.185,372.334 156.289 C 371.445 158.257,371.213 158.776,369.812 161.946 C 369.432 162.806,368.562 164.733,367.879 166.229 C 367.196 167.724,366.638 169.003,366.638 169.070 C 366.638 169.138,366.079 170.417,365.396 171.912 C 363.779 175.452,362.821 177.592,362.466 178.454 C 362.309 178.836,361.698 180.177,361.108 181.435 C 360.518 182.692,360.035 183.817,360.035 183.934 C 360.035 184.050,359.356 185.602,358.526 187.381 C 357.696 189.161,356.798 191.125,356.530 191.746 C 355.899 193.209,355.483 193.171,354.640 191.574 C 353.029 188.522,345.032 177.281,343.274 175.597 L 342.274 174.639 341.163 175.286 C 340.552 175.641,339.230 176.381,338.226 176.929 C 337.222 177.477,335.779 178.318,335.019 178.798 C 334.259 179.277,333.552 179.670,333.449 179.670 C 333.346 179.670,332.678 180.036,331.965 180.484 C 331.252 180.932,329.731 181.817,328.584 182.452 C 327.437 183.087,326.030 183.893,325.456 184.242 C 324.883 184.591,324.179 184.984,323.892 185.115 C 323.606 185.246,322.824 185.693,322.155 186.108 C 321.486 186.523,319.844 187.444,318.506 188.154 C 317.168 188.864,315.526 189.766,314.857 190.160 C 313.154 191.161,310.245 192.756,307.385 194.257 C 306.047 194.960,304.170 195.973,303.215 196.510 C 300.102 198.259,295.895 200.507,286.972 205.191 L 284.282 206.603 284.192 272.806 L 284.101 339.010 254.040 339.183 C 237.168 339.281,223.789 339.224,223.545 339.054 C 223.201 338.814,223.110 328.079,223.110 287.360 C 223.110 252.872,222.994 235.969,222.758 235.969 C 222.564 235.969,222.134 236.119,221.802 236.304 C 221.471 236.488,218.853 237.591,215.986 238.756 C 213.119 239.920,210.460 241.002,210.078 241.159 C 209.696 241.317,208.679 241.719,207.819 242.053 C 206.959 242.386,205.786 242.862,205.213 243.111 C 202.759 244.174,201.647 244.619,200.174 245.126 C 199.314 245.422,197.750 245.999,196.699 246.410 C 195.647 246.820,193.801 247.514,192.597 247.952 C 191.392 248.390,190.310 248.844,190.193 248.961 C 190.076 249.079,189.756 249.175,189.482 249.175 C 189.208 249.175,188.491 249.394,187.889 249.661 C 187.287 249.929,186.481 250.232,186.099 250.334 C 185.717 250.436,184.778 250.749,184.014 251.031 L 182.624 251.543 182.536 295.086 C 182.487 319.035,182.318 338.759,182.160 338.918 C 181.659 339.418,121.541 339.246,121.221 338.744 C 121.072 338.508,120.947 322.663,120.944 303.533 C 120.941 284.403,120.851 268.664,120.744 268.557 C 120.637 268.450,119.737 268.578,118.745 268.843 C 117.753 269.107,116.287 269.325,115.487 269.327 C 114.688 269.329,113.610 269.492,113.093 269.688 C 112.232 270.016,108.494 270.560,104.605 270.925 C 103.745 271.005,101.008 271.301,98.523 271.581 C 86.347 272.953,70.814 273.008,58.905 271.721 C 49.633 270.719,45.377 270.133,43.997 269.670 C 43.443 269.483,42.518 269.331,41.942 269.331 C 41.366 269.331,40.099 269.107,39.127 268.833 C 38.154 268.558,36.108 268.071,34.579 267.749 C 33.050 267.427,31.439 267.026,31.000 266.857 C 30.561 266.689,29.914 266.551,29.563 266.551 C 29.212 266.551,28.164 266.329,27.234 266.058 C 26.304 265.787,24.526 265.308,23.284 264.993 C 22.042 264.678,20.556 264.284,19.983 264.117 C 19.409 263.949,18.315 263.700,17.550 263.563 C 16.785 263.426,15.657 263.104,15.042 262.847 C 14.427 262.591,13.527 262.381,13.043 262.381 C 12.559 262.381,12.163 262.263,12.164 262.120 C 12.164 261.977,19.084 261.844,27.541 261.824 C 36.998 261.803,44.324 261.629,46.568 261.372 C 48.575 261.143,51.937 260.817,54.040 260.647 C 56.142 260.478,58.957 260.177,60.295 259.979 C 61.633 259.781,64.605 259.368,66.898 259.060 C 69.192 258.753,71.634 258.358,72.325 258.182 C 73.016 258.006,74.125 257.863,74.790 257.863 C 75.454 257.863,76.765 257.630,77.703 257.345 C 78.642 257.061,79.907 256.826,80.516 256.824 C 81.125 256.822,82.049 256.658,82.570 256.460 C 83.090 256.262,84.391 255.957,85.459 255.781 C 86.528 255.606,88.497 255.211,89.835 254.903 C 91.173 254.596,92.893 254.218,93.658 254.064 C 96.032 253.585,99.873 252.615,106.864 250.731 C 111.069 249.597,112.795 249.107,113.814 248.757 C 114.387 248.561,115.326 248.320,115.899 248.222 C 116.473 248.125,117.104 247.916,117.303 247.759 C 117.502 247.602,118.284 247.318,119.041 247.127 C 122.335 246.299,124.248 245.692,126.424 244.785 C 127.051 244.523,127.863 244.309,128.228 244.309 C 128.592 244.309,128.976 244.171,129.081 244.001 C 129.186 243.832,129.840 243.586,130.534 243.456 C 131.229 243.326,132.052 243.082,132.363 242.914 C 132.673 242.746,133.866 242.294,135.013 241.909 C 136.160 241.524,138.427 240.718,140.052 240.119 C 141.677 239.520,143.408 238.907,143.899 238.758 C 144.390 238.608,145.093 238.327,145.463 238.132 C 145.832 237.937,146.759 237.540,147.524 237.249 C 149.606 236.456,154.366 234.588,155.256 234.213 C 155.686 234.032,156.390 233.736,156.820 233.555 C 157.250 233.374,158.384 232.897,159.340 232.493 C 160.295 232.090,161.390 231.632,161.772 231.476 C 162.155 231.319,163.520 230.702,164.806 230.105 C 166.092 229.507,167.233 229.018,167.342 229.018 C 167.450 229.018,168.743 228.457,170.216 227.771 C 171.688 227.085,173.440 226.284,174.109 225.992 C 176.054 225.141,197.258 214.553,200.695 212.716 C 204.589 210.634,208.868 208.281,209.557 207.842 C 209.844 207.659,210.860 207.094,211.816 206.588 C 221.811 201.287,244.482 186.925,261.164 175.327 C 264.129 173.265,280.557 161.226,280.799 160.937 C 280.895 160.823,281.990 159.956,283.232 159.010 C 286.490 156.529,293.623 150.872,295.060 149.629 C 296.223 148.624,297.363 147.697,300.327 145.348 C 301.032 144.788,302.753 143.305,304.150 142.051 C 308.554 138.097,309.088 137.633,310.567 136.484 C 312.855 134.704,312.967 134.352,311.834 132.517 C 311.298 131.649,310.657 130.605,310.409 130.196 C 310.161 129.787,309.692 129.031,309.366 128.516 C 309.041 128.001,307.460 125.454,305.854 122.856 C 304.247 120.258,302.801 118.051,302.639 117.951 C 302.478 117.851,302.346 117.408,302.346 116.966 C 302.346 115.992,303.061 115.885,312.945 115.369 C 316.577 115.179,323.145 114.791,327.541 114.506 C 331.937 114.220,338.506 113.833,342.137 113.643 C 345.769 113.454,350.181 113.142,351.941 112.949 C 353.702 112.756,356.517 112.596,358.197 112.595 C 359.877 112.593,362.580 112.440,364.205 112.254 C 365.830 112.069,370.287 111.736,374.109 111.516 C 387.619 110.737,389.414 110.635,390.715 110.574 C 391.517 110.537,392.096 110.687,392.201 110.961 " stroke="none" fill="#fbfbfb" fill-rule="evenodd"></path><path id="path4" d="M177.384 1.520 C 175.840 2.309,172.790 3.783,170.607 4.796 C 168.424 5.810,166.169 6.893,165.595 7.204 C 163.918 8.112,163.673 8.232,160.209 9.850 C 154.233 12.639,144.869 17.095,137.446 20.681 C 128.716 24.898,124.611 26.848,123.140 27.479 C 122.167 27.896,121.589 28.391,121.463 28.914 C 121.357 29.354,121.313 76.473,121.365 133.623 L 121.460 237.533 122.378 237.639 C 122.883 237.697,124.682 237.272,126.375 236.695 C 135.245 233.666,137.930 232.718,143.180 230.757 C 148.475 228.779,151.327 227.671,153.084 226.907 C 153.467 226.741,154.615 226.284,155.637 225.892 C 156.659 225.500,158.656 224.636,160.076 223.971 C 161.495 223.307,162.740 222.763,162.842 222.763 C 162.943 222.763,163.761 222.442,164.659 222.049 C 165.556 221.656,166.603 221.201,166.985 221.037 C 168.101 220.558,171.904 218.802,175.967 216.891 C 178.039 215.915,179.865 215.117,180.023 215.117 C 180.182 215.117,180.791 214.714,181.376 214.221 L 182.441 213.325 182.443 107.966 C 182.444 50.018,182.347 2.020,182.228 1.303 C 181.841 -1.026,181.332 -0.123,181.445 2.693 C 181.504 4.175,181.520 52.246,181.480 109.518 L 181.407 213.650 177.672 215.460 C 174.067 217.207,172.804 217.798,169.070 219.488 C 168.115 219.920,166.280 220.756,164.994 221.345 C 163.708 221.934,162.507 222.415,162.325 222.415 C 162.143 222.415,161.006 222.871,159.798 223.428 C 155.936 225.208,153.527 226.238,153.224 226.238 C 153.062 226.238,152.104 226.610,151.096 227.064 C 150.087 227.519,147.463 228.548,145.265 229.351 C 143.067 230.153,140.721 231.021,140.052 231.278 C 136.980 232.461,129.087 235.248,127.715 235.635 C 127.142 235.796,125.749 236.250,124.620 236.644 C 123.492 237.037,122.436 237.359,122.274 237.359 C 121.941 237.359,121.864 29.901,122.197 29.034 C 122.316 28.724,123.449 27.995,124.716 27.413 C 125.983 26.831,127.791 25.960,128.733 25.479 C 129.675 24.997,130.691 24.478,130.992 24.325 C 131.292 24.172,132.554 23.575,133.797 22.999 C 138.089 21.007,144.414 17.999,149.262 15.643 C 154.452 13.121,160.239 10.358,164.205 8.508 C 165.543 7.884,169.586 5.949,173.189 4.208 C 176.792 2.467,179.861 1.043,180.010 1.043 C 180.158 1.043,180.474 0.808,180.712 0.521 C 181.431 -0.345,180.467 -0.055,177.384 1.520 M279.226 1.520 C 277.691 2.309,274.329 3.954,271.754 5.176 C 269.179 6.397,264.726 8.531,261.859 9.916 C 247.406 16.901,244.962 18.071,244.836 18.071 C 244.760 18.071,241.679 19.535,237.988 21.324 C 229.789 25.299,226.451 26.877,224.812 27.554 C 223.007 28.300,223.110 23.298,223.110 109.644 C 223.110 197.777,222.977 192.539,225.168 190.670 C 225.470 190.413,227.202 189.312,229.018 188.224 C 230.834 187.137,232.554 186.103,232.841 185.927 C 238.502 182.462,255.060 171.485,259.589 168.195 C 261.602 166.733,263.589 165.356,264.004 165.134 C 264.419 164.912,264.967 164.534,265.222 164.294 C 265.477 164.054,266.858 163.076,268.290 162.120 C 269.723 161.164,271.051 160.211,271.242 160.002 C 271.434 159.793,273.765 157.995,276.423 156.006 C 279.082 154.017,281.770 151.998,282.397 151.520 C 283.023 151.043,283.698 150.301,283.896 149.873 C 284.286 149.030,284.429 4.350,284.042 1.531 C 283.771 -0.449,283.058 -0.450,279.226 1.520 M283.543 75.842 L 283.573 149.774 280.585 152.124 C 273.839 157.431,272.505 158.449,269.720 160.413 C 268.118 161.543,265.773 163.201,264.507 164.099 C 258.160 168.599,242.328 179.322,242.031 179.322 C 241.971 179.322,240.231 180.444,238.164 181.815 C 231.647 186.136,224.371 190.453,224.085 190.167 C 223.766 189.848,223.675 29.935,223.994 29.105 C 224.111 28.800,224.781 28.282,225.483 27.954 C 228.347 26.614,238.938 21.541,249.348 16.522 C 251.451 15.508,253.953 14.331,254.909 13.905 C 256.856 13.039,259.419 11.786,260.469 11.187 C 260.851 10.970,262.884 9.988,264.987 9.006 C 270.721 6.329,279.355 2.231,281.321 1.254 L 283.058 0.391 283.285 1.151 C 283.410 1.569,283.526 35.180,283.543 75.842 M390.530 110.767 C 391.950 110.895,392.514 111.548,391.659 112.076 C 391.468 112.195,391.313 112.556,391.314 112.879 C 391.315 113.244,391.517 113.081,391.848 112.447 C 392.617 110.972,392.289 110.502,390.541 110.573 L 389.053 110.634 390.530 110.767 M381.501 111.056 C 381.394 111.164,378.826 111.374,375.796 111.525 L 370.287 111.798 374.457 111.827 C 376.751 111.843,380.269 111.650,382.276 111.397 C 385.598 110.979,385.735 110.935,383.811 110.899 C 382.648 110.878,381.609 110.948,381.501 111.056 M364.205 112.250 L 362.294 112.484 364.205 112.503 C 365.256 112.514,367.055 112.406,368.202 112.264 L 370.287 112.005 368.202 112.010 C 367.055 112.013,365.256 112.121,364.205 112.250 M353.258 112.825 C 352.876 112.898,350.921 113.103,348.914 113.280 L 345.265 113.602 349.262 113.406 C 351.460 113.299,355.213 113.099,357.602 112.963 L 361.946 112.715 357.950 112.704 C 355.752 112.698,353.640 112.752,353.258 112.825 M336.890 113.853 C 336.680 113.940,334.491 114.139,332.025 114.296 L 327.541 114.582 330.843 114.603 C 332.659 114.614,335.630 114.423,337.446 114.179 C 339.995 113.836,340.351 113.730,339.010 113.715 C 338.054 113.704,337.100 113.766,336.890 113.853 M390.252 115.064 C 389.853 115.847,389.585 116.547,389.658 116.620 C 389.731 116.693,390.131 116.052,390.547 115.197 C 391.494 113.247,391.238 113.132,390.252 115.064 M321.038 114.873 C 320.933 114.978,318.209 115.189,314.985 115.342 L 309.123 115.621 313.640 115.643 C 318.186 115.666,326.748 114.830,322.994 114.730 C 322.023 114.704,321.142 114.768,321.038 114.873 M303.649 115.979 C 302.376 116.112,301.724 117.385,302.639 117.951 C 302.895 118.109,308.096 126.333,309.169 128.276 C 309.386 128.669,309.738 129.164,309.951 129.378 C 310.638 130.065,310.364 129.204,309.542 128.095 C 309.104 127.504,307.594 125.143,306.186 122.850 C 304.778 120.556,303.416 118.433,303.160 118.131 C 302.227 117.033,302.581 116.423,304.170 116.390 C 304.983 116.373,306.429 116.238,307.385 116.089 L 309.123 115.818 307.037 115.830 C 305.891 115.837,304.366 115.904,303.649 115.979 M388.953 117.961 C 388.371 119.239,388.426 119.506,389.079 118.574 C 389.380 118.144,389.570 117.623,389.500 117.415 C 389.431 117.207,389.185 117.453,388.953 117.961 M387.910 120.254 C 387.679 120.625,387.490 121.126,387.491 121.368 C 387.492 121.610,387.730 121.354,388.019 120.800 C 388.621 119.645,388.541 119.244,387.910 120.254 M386.868 122.687 C 386.636 123.058,386.448 123.559,386.449 123.801 C 386.450 124.042,386.687 123.786,386.976 123.232 C 387.578 122.078,387.499 121.677,386.868 122.687 M384.911 127.094 C 384.590 127.818,384.179 128.682,383.997 129.014 C 383.815 129.345,383.678 129.815,383.692 130.056 C 383.706 130.298,384.178 129.495,384.741 128.272 C 385.304 127.049,385.704 125.988,385.630 125.914 C 385.556 125.840,385.232 126.371,384.911 127.094 M310.339 130.236 C 310.339 130.427,310.573 130.779,310.860 131.017 C 311.151 131.258,311.381 131.295,311.381 131.102 C 311.381 130.910,311.147 130.559,310.860 130.321 C 310.569 130.080,310.339 130.042,310.339 130.236 M383.203 130.930 C 382.755 131.674,381.940 133.921,382.226 133.623 C 382.603 133.230,383.704 130.669,383.495 130.669 C 383.421 130.669,383.289 130.786,383.203 130.930 M312.117 132.863 C 312.676 133.853,312.766 134.289,312.471 134.583 C 312.254 134.801,312.076 135.133,312.076 135.323 C 312.076 135.767,313.094 134.431,313.106 133.970 C 313.111 133.779,312.722 133.154,312.242 132.580 L 311.368 131.538 312.117 132.863 M381.272 135.225 C 381.018 135.800,380.884 136.344,380.975 136.434 C 381.066 136.525,381.339 136.120,381.581 135.534 C 382.157 134.145,381.875 133.864,381.272 135.225 M309.644 137.189 C 308.593 138.090,307.107 139.438,306.342 140.185 L 304.952 141.543 306.864 140.026 C 308.878 138.427,312.024 135.529,311.729 135.543 C 311.633 135.548,310.695 136.288,309.644 137.189 M380.265 137.631 C 380.033 138.002,379.845 138.503,379.846 138.744 C 379.847 138.986,380.084 138.730,380.373 138.176 C 380.975 137.021,380.896 136.620,380.265 137.631 M378.767 141.008 C 378.380 141.916,377.838 143.113,377.563 143.668 C 377.288 144.223,377.064 144.848,377.066 145.058 C 377.068 145.530,377.674 144.359,378.890 141.529 C 379.404 140.334,379.744 139.357,379.648 139.357 C 379.551 139.357,379.155 140.100,378.767 141.008 M303.910 142.225 C 303.146 142.987,300.218 145.451,297.820 147.350 C 296.224 148.613,293.303 151.328,294.526 150.411 C 297.681 148.045,304.938 141.828,304.745 141.657 C 304.668 141.588,304.292 141.844,303.910 142.225 M376.397 146.255 C 375.829 147.316,375.946 147.611,376.578 146.710 C 376.884 146.273,377.053 145.834,376.953 145.734 C 376.854 145.634,376.603 145.869,376.397 146.255 M375.005 149.462 C 374.611 150.278,374.354 151.012,374.435 151.093 C 374.516 151.174,374.905 150.572,375.299 149.756 C 375.693 148.940,375.950 148.206,375.869 148.125 C 375.788 148.044,375.399 148.646,375.005 149.462 M291.920 152.159 C 291.060 152.890,288.401 155.006,286.012 156.861 C 283.623 158.716,281.390 160.465,281.049 160.748 C 280.709 161.031,278.402 162.758,275.923 164.587 C 273.444 166.415,271.416 167.986,271.416 168.078 C 271.416 168.267,274.450 166.185,275.196 165.484 C 275.464 165.232,276.092 164.766,276.591 164.448 C 278.757 163.067,293.101 151.792,293.488 151.166 C 293.845 150.588,293.542 150.780,291.920 152.159 M373.645 152.404 C 373.062 153.682,373.173 153.955,373.803 152.793 C 374.097 152.250,374.273 151.741,374.193 151.662 C 374.114 151.583,373.867 151.916,373.645 152.404 M372.602 154.837 C 372.020 156.115,372.131 156.387,372.760 155.226 C 373.054 154.683,373.230 154.174,373.151 154.095 C 373.071 154.015,372.824 154.349,372.602 154.837 M370.653 159.249 C 370.317 160.064,369.890 161.019,369.706 161.372 C 369.521 161.725,369.432 162.077,369.509 162.153 C 369.586 162.230,369.848 161.863,370.091 161.337 C 370.334 160.812,370.777 159.873,371.074 159.251 C 371.371 158.628,371.536 158.040,371.439 157.944 C 371.343 157.848,370.989 158.435,370.653 159.249 M368.779 163.525 C 368.197 164.803,368.308 165.075,368.938 163.914 C 369.232 163.371,369.407 162.862,369.328 162.783 C 369.248 162.703,369.001 163.037,368.779 163.525 M367.042 167.348 C 366.459 168.626,366.570 168.898,367.200 167.736 C 367.494 167.194,367.670 166.685,367.590 166.606 C 367.511 166.526,367.264 166.860,367.042 167.348 M268.807 169.810 C 265.814 172.047,265.614 172.417,268.462 170.448 C 269.800 169.523,270.960 168.717,271.040 168.658 C 271.119 168.598,271.118 168.483,271.037 168.401 C 270.955 168.320,269.952 168.954,268.807 169.810 M366.016 169.603 C 365.785 169.974,365.601 170.475,365.609 170.716 C 365.617 170.958,365.864 170.712,366.158 170.169 C 366.768 169.042,366.654 168.582,366.016 169.603 M364.759 172.405 C 364.486 173.056,363.942 174.331,363.551 175.239 C 363.160 176.147,362.918 176.890,363.013 176.890 C 363.109 176.890,363.504 176.147,363.891 175.239 C 364.279 174.331,364.821 173.133,365.097 172.576 C 365.373 172.019,365.521 171.487,365.427 171.393 C 365.334 171.299,365.033 171.755,364.759 172.405 M264.639 172.838 C 264.066 173.282,262.268 174.552,260.643 175.662 C 257.688 177.680,255.612 179.393,257.666 178.118 C 260.424 176.406,266.293 172.048,265.856 172.037 C 265.760 172.034,265.213 172.395,264.639 172.838 M340.226 175.376 C 339.366 175.865,337.523 176.953,336.130 177.794 C 334.738 178.634,333.467 179.322,333.306 179.322 C 333.145 179.322,332.807 179.571,332.554 179.875 C 332.156 180.355,334.843 179.059,335.882 178.270 C 336.073 178.125,337.089 177.540,338.141 176.969 C 339.192 176.399,340.551 175.642,341.160 175.288 C 342.753 174.361,344.197 175.903,350.528 185.295 C 351.985 187.458,353.411 189.461,353.695 189.748 C 354.373 190.430,353.373 188.820,351.266 185.837 C 350.355 184.546,349.609 183.408,349.609 183.307 C 349.609 183.101,345.859 178.019,345.173 177.294 C 344.931 177.039,344.326 176.296,343.828 175.643 C 342.754 174.235,342.292 174.201,340.226 175.376 M362.207 178.187 C 361.588 179.506,361.671 180.046,362.305 178.830 C 362.596 178.272,362.791 177.691,362.738 177.538 C 362.685 177.385,362.446 177.677,362.207 178.187 M254.214 180.090 C 253.067 180.875,250.056 182.902,247.524 184.593 C 244.991 186.285,242.919 187.748,242.919 187.845 C 242.919 188.044,243.915 187.407,250.736 182.840 C 255.143 179.889,256.909 178.595,256.460 178.645 C 256.371 178.655,255.361 179.306,254.214 180.090 M361.105 180.660 C 360.899 181.046,360.731 181.568,360.732 181.819 C 360.733 182.071,360.970 181.823,361.259 181.269 C 361.548 180.715,361.716 180.193,361.633 180.110 C 361.549 180.026,361.312 180.274,361.105 180.660 M329.867 181.306 C 329.043 181.785,328.441 182.249,328.528 182.336 C 328.615 182.424,329.446 182.019,330.373 181.437 C 332.391 180.170,331.995 180.067,329.867 181.306 M326.335 183.336 C 325.671 183.804,325.232 184.188,325.359 184.188 C 325.663 184.188,328.063 182.769,328.063 182.589 C 328.063 182.277,327.476 182.530,326.335 183.336 M358.899 185.641 C 358.369 186.809,357.997 187.826,358.070 187.900 C 358.264 188.094,360.085 184.161,359.963 183.811 C 359.907 183.650,359.428 184.473,358.899 185.641 M324.240 184.536 C 323.953 184.706,322.585 185.496,321.199 186.293 C 319.813 187.090,318.679 187.817,318.679 187.909 C 318.679 188.001,319.579 187.565,320.678 186.940 C 321.777 186.314,323.103 185.586,323.625 185.321 C 324.147 185.056,324.664 184.692,324.775 184.513 C 325.014 184.125,324.930 184.129,324.240 184.536 M239.179 190.044 C 237.408 191.148,235.766 192.255,235.530 192.504 C 235.009 193.052,241.490 189.152,242.212 188.482 C 243.085 187.672,242.502 187.973,239.179 190.044 M357.328 189.064 C 357.097 189.435,356.913 189.936,356.921 190.178 C 356.929 190.419,357.175 190.173,357.469 189.630 C 358.080 188.504,357.966 188.044,357.328 189.064 M315.204 189.574 C 314.963 189.865,314.925 190.096,315.119 190.096 C 315.310 190.096,315.661 189.861,315.899 189.574 C 316.141 189.283,316.178 189.053,315.984 189.053 C 315.793 189.053,315.442 189.288,315.204 189.574 M312.842 190.861 C 312.212 191.250,311.762 191.635,311.843 191.715 C 311.997 191.869,314.509 190.475,314.509 190.235 C 314.509 189.961,313.971 190.164,312.842 190.861 M354.149 190.617 C 354.149 190.808,354.379 191.268,354.659 191.639 C 354.940 192.010,355.169 192.157,355.169 191.966 C 355.169 191.775,354.940 191.315,354.659 190.944 C 354.379 190.573,354.149 190.426,354.149 190.617 M310.495 192.141 C 310.314 192.310,309.031 193.029,307.645 193.738 C 306.260 194.447,305.045 195.158,304.947 195.316 C 304.711 195.699,308.793 193.672,310.333 192.643 C 310.998 192.197,311.381 191.833,311.184 191.833 C 310.987 191.833,310.677 191.972,310.495 192.141 M231.871 194.663 C 231.242 195.065,230.802 195.471,230.895 195.563 C 231.064 195.733,233.189 194.348,233.189 194.068 C 233.189 193.837,233.095 193.879,231.871 194.663 M301.460 197.007 C 301.278 197.176,300.113 197.857,298.871 198.519 C 295.381 200.380,289.607 203.425,286.533 205.025 L 283.753 206.473 283.579 272.567 L 283.406 338.662 253.519 338.662 L 223.632 338.662 223.548 287.425 C 223.456 230.624,223.281 235.202,225.556 234.870 C 226.736 234.697,226.851 233.884,225.695 233.884 C 224.721 233.884,220.816 236.223,221.181 236.588 C 221.293 236.700,221.569 236.606,221.796 236.380 C 223.138 235.038,223.110 233.965,223.110 287.360 C 223.110 328.079,223.201 338.814,223.545 339.054 C 223.789 339.224,237.168 339.281,254.040 339.183 L 284.101 339.010 284.192 272.806 L 284.282 206.603 286.972 205.191 C 290.841 203.161,297.685 199.542,299.913 198.351 C 301.964 197.253,302.711 196.699,302.137 196.699 C 301.946 196.699,301.641 196.837,301.460 197.007 M225.195 198.751 C 224.335 199.280,221.945 200.697,219.883 201.900 C 217.821 203.102,216.199 204.151,216.278 204.231 C 216.358 204.310,217.967 203.455,219.854 202.331 C 221.740 201.207,224.019 199.868,224.917 199.357 C 225.815 198.846,226.645 198.273,226.762 198.084 C 227.047 197.623,226.993 197.645,225.195 198.751 M212.565 206.122 C 211.830 206.510,211.302 206.900,211.392 206.990 C 211.557 207.155,214.075 205.782,214.075 205.526 C 214.075 205.329,214.049 205.339,212.565 206.122 M281.234 207.559 C 281.313 207.798,281.587 207.993,281.842 207.993 C 282.097 207.993,282.370 207.798,282.450 207.559 C 282.536 207.300,282.290 207.124,281.842 207.124 C 281.394 207.124,281.148 207.300,281.234 207.559 M208.014 208.699 C 207.642 208.980,207.495 209.209,207.686 209.209 C 207.878 209.209,208.338 208.980,208.709 208.699 C 209.080 208.419,209.227 208.189,209.036 208.189 C 208.844 208.189,208.385 208.419,208.014 208.699 M279.489 208.579 C 279.704 209.224,280.452 209.331,280.452 208.717 C 280.452 208.414,280.204 208.167,279.902 208.167 C 279.599 208.167,279.413 208.353,279.489 208.579 M277.324 209.325 C 277.324 209.580,277.423 209.887,277.544 210.008 C 277.871 210.336,279.114 209.575,278.877 209.192 C 278.567 208.691,277.324 208.798,277.324 209.325 M204.774 210.487 C 203.586 211.190,202.670 211.821,202.738 211.890 C 202.875 212.026,207.124 209.558,207.124 209.343 C 207.124 209.112,206.984 209.180,204.774 210.487 M275.934 210.426 C 275.934 210.712,276.169 210.947,276.455 210.947 C 276.742 210.947,276.977 210.712,276.977 210.426 C 276.977 210.139,276.742 209.904,276.455 209.904 C 276.169 209.904,275.934 210.139,275.934 210.426 M273.849 211.468 C 273.849 211.755,274.083 211.990,274.370 211.990 C 274.657 211.990,274.891 211.755,274.891 211.468 C 274.891 211.182,274.657 210.947,274.370 210.947 C 274.083 210.947,273.849 211.182,273.849 211.468 M199.826 213.087 C 198.775 213.666,197.758 214.303,197.567 214.503 C 197.254 214.830,201.886 212.477,202.230 212.134 C 202.660 211.705,201.505 212.163,199.826 213.087 M271.851 212.424 C 271.930 212.663,272.204 212.858,272.459 212.858 C 272.714 212.858,272.987 212.663,273.067 212.424 C 273.153 212.166,272.907 211.990,272.459 211.990 C 272.011 211.990,271.764 212.166,271.851 212.424 M269.828 213.071 C 269.489 213.620,270.430 214.113,270.966 213.668 C 271.210 213.466,271.323 213.162,271.218 212.993 C 270.951 212.561,270.114 212.608,269.828 213.071 M267.969 213.867 C 267.747 214.135,267.180 214.451,266.710 214.569 C 266.240 214.686,265.856 214.941,265.856 215.135 C 265.856 215.755,266.917 215.918,267.349 215.364 C 267.579 215.069,268.078 214.774,268.458 214.708 C 269.262 214.568,269.638 213.380,268.878 213.380 C 268.600 213.380,268.192 213.599,267.969 213.867 M195.809 215.280 C 195.438 215.561,195.291 215.790,195.482 215.790 C 195.673 215.790,196.133 215.561,196.504 215.280 C 196.875 214.999,197.023 214.770,196.831 214.770 C 196.640 214.770,196.180 214.999,195.809 215.280 M193.765 216.345 C 193.394 216.625,193.247 216.855,193.438 216.855 C 193.629 216.855,194.089 216.625,194.460 216.345 C 194.831 216.064,194.978 215.834,194.787 215.834 C 194.596 215.834,194.136 216.064,193.765 216.345 M264.198 216.225 C 264.413 216.869,265.161 216.976,265.161 216.363 C 265.161 216.060,264.913 215.812,264.610 215.812 C 264.308 215.812,264.122 215.998,264.198 216.225 M262.453 216.742 C 262.110 216.880,262.099 217.037,262.405 217.406 C 262.867 217.962,263.423 217.744,263.423 217.008 C 263.423 216.490,263.220 216.434,262.453 216.742 M190.009 218.178 C 188.720 218.853,187.739 219.480,187.831 219.572 C 187.999 219.740,192.072 217.712,192.685 217.155 C 193.315 216.582,192.368 216.944,190.009 218.178 M260.643 218.071 C 260.643 218.358,260.799 218.593,260.990 218.593 C 261.182 218.593,261.338 218.358,261.338 218.071 C 261.338 217.785,261.182 217.550,260.990 217.550 C 260.799 217.550,260.643 217.785,260.643 218.071 M258.297 219.027 C 258.516 219.685,259.600 219.778,259.600 219.139 C 259.600 218.817,259.303 218.593,258.876 218.593 C 258.452 218.593,258.212 218.772,258.297 219.027 M186.273 220.156 C 185.675 220.498,185.580 220.657,185.970 220.665 C 186.281 220.672,186.730 220.443,186.968 220.156 C 187.497 219.519,187.388 219.519,186.273 220.156 M255.553 219.980 C 254.518 220.398,254.230 220.987,254.930 221.255 C 255.297 221.396,255.639 221.260,255.846 220.890 C 256.060 220.508,256.413 220.375,256.846 220.512 C 257.312 220.660,257.515 220.559,257.515 220.180 C 257.515 219.587,256.727 219.507,255.553 219.980 M184.034 221.210 C 183.663 221.491,183.516 221.720,183.707 221.720 C 183.898 221.720,184.358 221.491,184.729 221.210 C 185.100 220.929,185.248 220.700,185.056 220.700 C 184.865 220.700,184.405 220.929,184.034 221.210 M252.059 221.861 C 251.906 222.129,251.390 222.403,250.912 222.469 C 249.807 222.622,249.917 223.249,251.075 223.394 C 251.689 223.471,251.955 223.339,251.955 222.960 C 251.955 222.611,252.267 222.415,252.824 222.415 C 253.364 222.415,253.692 222.218,253.692 221.894 C 253.692 221.235,252.430 221.209,252.059 221.861 M181.481 222.477 C 180.662 222.875,180.048 223.257,180.118 223.326 C 180.274 223.482,183.145 222.116,183.145 221.886 C 183.145 221.665,183.185 221.651,181.481 222.477 M177.845 224.177 C 177.129 224.555,176.542 224.936,176.542 225.023 C 176.542 225.226,178.247 224.494,179.139 223.908 C 180.186 223.220,179.314 223.401,177.845 224.177 M247.785 223.801 C 247.498 223.967,246.990 224.187,246.655 224.291 C 245.743 224.572,245.923 225.195,246.916 225.195 C 247.394 225.195,247.785 225.050,247.785 224.872 C 247.785 224.694,248.124 224.499,248.539 224.438 C 249.471 224.301,249.829 223.450,248.943 223.478 C 248.593 223.490,248.071 223.635,247.785 223.801 M244.203 225.418 C 243.879 225.742,244.271 226.238,244.851 226.238 C 245.127 226.238,245.352 226.003,245.352 225.717 C 245.352 225.193,244.618 225.002,244.203 225.418 M174.109 225.906 C 173.823 226.083,172.684 226.641,171.578 227.148 C 170.473 227.654,169.630 228.130,169.706 228.206 C 169.874 228.374,175.152 225.963,175.152 225.717 C 175.152 225.459,174.701 225.541,174.109 225.906 M241.404 226.794 C 240.394 227.480,240.169 227.796,240.476 228.098 C 240.781 228.399,240.985 228.356,241.305 227.923 C 241.539 227.607,242.115 227.294,242.585 227.228 C 243.056 227.161,243.440 226.885,243.440 226.615 C 243.440 225.788,242.801 225.844,241.404 226.794 M237.927 228.499 C 237.380 228.785,236.710 229.018,236.439 229.018 C 236.169 229.018,235.857 229.253,235.747 229.540 C 235.633 229.837,235.115 230.061,234.541 230.061 C 233.473 230.061,233.177 230.640,234.070 230.983 C 234.364 231.095,234.885 230.934,235.227 230.624 C 235.570 230.314,236.181 230.061,236.587 230.061 C 236.992 230.061,237.449 229.841,237.602 229.573 C 237.755 229.305,238.238 229.031,238.676 228.965 C 239.113 228.899,239.477 228.692,239.484 228.506 C 239.504 227.951,238.984 227.948,237.927 228.499 M167.205 229.046 C 164.380 230.299,163.311 230.846,163.437 230.973 C 163.551 231.087,164.451 230.703,168.202 228.939 C 169.911 228.136,169.048 228.228,167.205 229.046 M161.251 231.654 C 160.710 231.954,160.586 232.138,160.924 232.141 C 161.222 232.144,161.769 231.916,162.140 231.636 C 162.984 230.998,162.412 231.009,161.251 231.654 M231.865 231.477 C 231.934 231.682,232.138 231.851,232.320 231.851 C 232.501 231.851,232.706 231.682,232.774 231.477 C 232.843 231.272,232.638 231.103,232.320 231.103 C 232.001 231.103,231.797 231.272,231.865 231.477 M229.242 232.320 C 228.955 232.606,228.396 232.841,228.000 232.841 C 227.592 232.841,227.281 233.067,227.281 233.362 C 227.281 233.655,227.591 233.884,227.987 233.884 C 228.375 233.884,228.783 233.649,228.893 233.362 C 229.007 233.065,229.525 232.841,230.098 232.841 C 230.760 232.841,231.103 232.663,231.103 232.320 C 231.103 232.033,230.802 231.798,230.433 231.798 C 230.065 231.798,229.528 232.033,229.242 232.320 M159.166 232.514 C 158.879 232.694,158.193 233.002,157.641 233.198 C 157.089 233.395,156.715 233.633,156.810 233.728 C 157.009 233.927,160.209 232.613,160.209 232.332 C 160.209 232.061,159.764 232.139,159.166 232.514 M154.648 234.434 C 154.165 234.702,154.011 234.913,154.301 234.909 C 154.587 234.905,155.213 234.678,155.691 234.405 C 156.169 234.132,156.325 233.918,156.038 233.930 C 155.752 233.942,155.126 234.169,154.648 234.434 M151.173 235.782 C 150.122 236.227,148.748 236.785,148.121 237.022 C 147.494 237.259,147.049 237.521,147.132 237.604 C 147.285 237.757,152.164 235.891,153.214 235.278 C 154.235 234.681,153.121 234.956,151.173 235.782 M218.940 237.185 C 217.805 237.834,218.202 237.841,219.682 237.199 C 220.325 236.919,220.617 236.690,220.330 236.690 C 220.043 236.689,219.418 236.912,218.940 237.185 M145.112 238.239 C 144.253 238.888,144.818 238.881,145.960 238.228 C 146.464 237.940,146.610 237.730,146.308 237.730 C 146.021 237.729,145.483 237.958,145.112 238.239 M215.291 238.635 C 212.348 239.880,211.625 240.238,211.767 240.379 C 211.889 240.502,217.565 238.155,217.860 237.860 C 218.203 237.516,217.263 237.800,215.291 238.635 M142.311 239.283 C 141.738 239.545,141.503 239.762,141.790 239.763 C 142.076 239.765,142.702 239.543,143.180 239.270 C 144.279 238.642,143.692 238.651,142.311 239.283 M139.878 240.130 C 139.496 240.290,138.670 240.614,138.043 240.848 C 137.415 241.083,136.956 241.329,137.023 241.396 C 137.160 241.533,140.736 240.266,141.023 239.979 C 141.292 239.710,140.690 239.789,139.878 240.130 M209.557 241.037 C 208.382 241.689,209.219 241.664,210.473 241.010 C 211.020 240.724,211.234 240.505,210.947 240.523 C 210.660 240.540,210.035 240.772,209.557 241.037 M134.666 242.063 C 133.262 242.706,134.101 242.707,135.581 242.064 C 136.224 241.785,136.516 241.563,136.229 241.571 C 135.943 241.579,135.239 241.800,134.666 242.063 M207.124 242.050 C 206.646 242.324,206.412 242.547,206.603 242.547 C 206.794 242.547,207.341 242.324,207.819 242.050 C 208.297 241.777,208.532 241.554,208.341 241.554 C 208.149 241.554,207.602 241.777,207.124 242.050 M132.215 242.885 C 132.034 243.058,131.573 243.274,131.190 243.366 C 130.512 243.530,130.513 243.535,131.211 243.574 C 131.604 243.596,132.230 243.385,132.601 243.104 C 132.972 242.823,133.111 242.589,132.911 242.583 C 132.710 242.577,132.397 242.713,132.215 242.885 M204.170 243.152 C 202.718 243.674,201.810 244.309,202.516 244.309 C 202.734 244.309,203.010 244.153,203.128 243.962 C 203.246 243.771,203.616 243.614,203.951 243.614 C 204.285 243.614,204.862 243.385,205.233 243.104 C 206.032 242.500,205.978 242.503,204.170 243.152 M126.499 244.831 C 125.389 245.465,125.626 245.468,127.368 244.841 C 128.132 244.565,128.445 244.338,128.063 244.337 C 127.680 244.335,126.977 244.557,126.499 244.831 M200.020 244.842 C 199.167 245.488,199.432 245.488,200.916 244.844 C 201.725 244.493,201.871 244.336,201.390 244.334 C 201.008 244.333,200.391 244.561,200.020 244.842 M123.371 245.873 C 122.231 246.525,122.969 246.534,124.461 245.887 C 125.268 245.536,125.415 245.379,124.935 245.378 C 124.553 245.377,123.849 245.600,123.371 245.873 M197.394 245.873 C 196.916 246.146,196.681 246.370,196.872 246.370 C 197.063 246.370,197.611 246.146,198.089 245.873 C 198.566 245.600,198.801 245.376,198.610 245.376 C 198.419 245.376,197.871 245.600,197.394 245.873 M120.591 246.708 C 120.304 246.869,119.489 247.105,118.778 247.232 C 118.068 247.360,117.378 247.641,117.244 247.857 C 117.077 248.128,117.208 248.165,117.667 247.977 C 118.033 247.827,118.944 247.559,119.692 247.382 C 121.295 247.003,122.475 246.416,121.633 246.416 C 121.347 246.416,120.877 246.547,120.591 246.708 M193.745 247.256 C 192.789 247.706,192.163 248.078,192.354 248.082 C 192.546 248.086,193.484 247.721,194.440 247.271 C 195.395 246.821,196.021 246.449,195.830 246.445 C 195.639 246.441,194.700 246.805,193.745 247.256 M114.335 248.653 C 113.784 248.969,113.663 249.155,114.005 249.162 C 114.301 249.169,114.692 249.031,114.874 248.857 C 115.056 248.682,115.595 248.468,116.073 248.383 L 116.942 248.227 116.073 248.192 C 115.595 248.172,114.813 248.380,114.335 248.653 M189.748 248.653 C 189.197 248.969,189.076 249.155,189.418 249.162 C 189.714 249.169,190.105 249.033,190.287 248.861 C 190.468 248.688,190.930 248.472,191.312 248.380 L 192.007 248.213 191.312 248.185 C 190.930 248.169,190.226 248.380,189.748 248.653 M110.686 249.715 C 109.579 250.257,109.901 250.222,112.424 249.531 C 113.384 249.269,113.397 249.244,112.598 249.226 C 112.120 249.215,111.260 249.435,110.686 249.715 M186.794 249.708 C 186.216 249.973,186.005 250.193,186.320 250.202 C 186.633 250.210,187.336 249.984,187.884 249.698 C 189.126 249.050,188.212 249.059,186.794 249.708 M106.690 250.760 C 105.804 251.095,105.675 251.226,106.216 251.240 C 106.624 251.251,107.484 251.031,108.127 250.752 C 109.614 250.107,108.399 250.114,106.690 250.760 M183.396 250.798 C 182.035 251.214,181.747 251.442,181.799 252.065 C 181.834 252.482,181.839 272.177,181.809 295.832 L 181.755 338.840 151.781 338.751 L 121.807 338.662 121.752 303.982 C 121.699 270.719,121.650 268.288,121.036 268.288 C 120.730 268.288,121.002 338.668,121.309 338.975 C 121.573 339.239,181.692 339.263,182.118 339.000 C 182.326 338.871,182.450 322.553,182.450 295.190 C 182.450 253.965,182.483 251.575,183.058 251.397 C 184.044 251.091,185.782 250.260,185.404 250.276 C 185.213 250.283,184.309 250.518,183.396 250.798 M103.388 251.601 C 103.006 251.763,101.946 252.087,101.033 252.321 C 100.119 252.554,99.435 252.809,99.511 252.885 C 99.660 253.034,105.013 251.662,105.265 251.410 C 105.525 251.150,104.115 251.293,103.388 251.601 M178.868 252.177 C 178.544 252.501,178.936 252.997,179.517 252.997 C 179.792 252.997,180.017 252.763,180.017 252.476 C 180.017 251.953,179.284 251.762,178.868 252.177 M176.089 252.895 C 175.743 252.984,175.522 253.238,175.596 253.461 C 175.792 254.047,177.411 253.970,177.411 253.374 C 177.411 252.813,176.996 252.663,176.089 252.895 M95.917 253.519 C 94.291 254.145,95.335 254.158,97.307 253.537 C 98.377 253.199,98.597 253.045,98.002 253.047 C 97.524 253.049,96.586 253.261,95.917 253.519 M173.328 253.932 C 172.501 254.148,172.561 254.638,173.449 254.920 C 174.265 255.179,175.009 254.652,174.649 254.070 C 174.407 253.677,174.332 253.670,173.328 253.932 M92.329 254.268 C 92.204 254.393,91.513 254.610,90.794 254.749 C 89.623 254.976,89.595 255.004,90.530 255.016 C 91.759 255.032,94.435 254.109,93.281 254.066 C 92.883 254.052,92.455 254.142,92.329 254.268 M169.849 254.941 C 169.409 255.381,169.971 255.778,171.031 255.778 C 171.716 255.778,172.033 255.626,171.940 255.343 C 171.782 254.864,170.226 254.564,169.849 254.941 M87.576 255.430 C 87.289 255.615,86.507 255.781,85.838 255.799 C 85.169 255.817,83.997 256.050,83.232 256.318 C 82.167 256.690,82.085 256.765,82.884 256.635 C 83.458 256.541,84.787 256.324,85.838 256.152 C 88.088 255.783,89.919 255.137,88.792 255.110 C 88.410 255.101,87.863 255.245,87.576 255.430 M167.159 256.299 C 167.159 256.623,167.487 256.820,168.028 256.820 C 168.568 256.820,168.897 256.623,168.897 256.299 C 168.897 255.975,168.568 255.778,168.028 255.778 C 167.487 255.778,167.159 255.975,167.159 256.299 M77.672 257.378 C 76.558 257.766,76.489 257.833,77.324 257.713 C 79.160 257.449,80.932 256.891,79.930 256.892 C 79.453 256.893,78.436 257.111,77.672 257.378 M164.118 257.255 C 164.198 257.493,164.628 257.689,165.074 257.689 C 165.520 257.689,165.950 257.493,166.030 257.255 C 166.125 256.968,165.800 256.820,165.074 256.820 C 164.348 256.820,164.023 256.968,164.118 257.255 M72.878 258.081 C 72.758 258.201,71.754 258.415,70.648 258.557 C 68.684 258.808,68.673 258.815,70.200 258.854 C 71.060 258.877,72.467 258.673,73.328 258.402 C 74.518 258.027,74.677 257.904,73.994 257.886 C 73.500 257.873,72.998 257.961,72.878 258.081 M160.556 258.170 C 160.556 258.539,161.948 258.945,162.354 258.694 C 162.985 258.304,162.583 257.863,161.599 257.863 C 161.025 257.863,160.556 258.001,160.556 258.170 M157.676 258.774 C 157.126 259.324,157.490 259.638,158.558 259.535 C 159.179 259.476,159.653 259.270,159.611 259.079 C 159.520 258.660,158.025 258.424,157.676 258.774 M64.813 259.316 C 56.090 260.614,55.608 260.806,63.145 259.980 C 66.323 259.631,69.587 258.896,67.593 258.978 C 67.211 258.993,65.960 259.146,64.813 259.316 M155.080 259.831 C 154.465 260.079,154.903 260.643,155.711 260.643 C 156.082 260.643,156.386 260.408,156.386 260.122 C 156.386 259.602,155.910 259.497,155.080 259.831 M151.086 260.535 C 149.883 260.849,150.710 261.685,152.223 261.685 C 153.067 261.685,153.480 260.997,152.868 260.609 C 152.363 260.289,152.073 260.277,151.086 260.535 M50.912 260.875 C 50.530 260.950,48.966 261.143,47.437 261.303 C 44.942 261.563,44.853 261.596,46.568 261.620 C 47.619 261.635,49.965 261.438,51.781 261.182 C 54.188 260.843,54.612 260.720,53.345 260.727 C 52.389 260.733,51.295 260.799,50.912 260.875 M148.306 261.578 C 147.632 261.754,147.508 262.223,148.048 262.556 C 148.588 262.890,149.783 262.394,149.783 261.836 C 149.783 261.338,149.447 261.279,148.306 261.578 M12.163 262.120 C 12.163 262.263,12.551 262.381,13.025 262.381 C 13.499 262.381,14.522 262.635,15.298 262.945 C 16.075 263.256,16.808 263.412,16.927 263.293 C 17.047 263.173,16.953 263.076,16.719 263.076 C 16.484 263.076,16.385 262.925,16.499 262.742 C 16.622 262.543,20.599 262.393,26.337 262.371 C 31.634 262.350,36.985 262.227,38.228 262.096 C 39.470 261.966,34.114 261.859,26.325 261.859 C 18.536 261.859,12.163 261.977,12.163 262.120 M143.614 262.603 C 142.651 263.009,143.270 263.457,144.657 263.356 C 145.469 263.297,146.134 263.093,146.134 262.902 C 146.134 262.523,144.315 262.307,143.614 262.603 M18.593 263.780 C 21.115 264.471,21.438 264.505,20.330 263.964 C 19.757 263.684,18.897 263.463,18.419 263.474 C 17.619 263.493,17.633 263.517,18.593 263.780 M139.723 263.743 C 139.324 264.003,139.408 264.118,140.130 264.299 C 141.226 264.574,142.149 264.419,142.243 263.944 C 142.333 263.484,140.363 263.326,139.723 263.743 M135.795 264.358 C 134.793 264.620,135.105 265.114,136.429 265.362 C 137.718 265.604,138.578 265.173,138.159 264.496 C 137.926 264.118,136.935 264.060,135.795 264.358 M23.284 264.958 C 23.953 265.232,24.891 265.451,25.369 265.446 C 26.065 265.439,25.995 265.371,25.022 265.106 C 22.777 264.494,21.986 264.427,23.284 264.958 M132.059 265.494 L 131.190 265.758 132.143 266.145 C 133.229 266.586,134.144 266.357,134.144 265.645 C 134.144 265.124,133.444 265.073,132.059 265.494 M26.759 265.856 C 27.046 266.041,27.515 266.193,27.802 266.193 C 28.265 266.193,28.265 266.155,27.802 265.856 C 27.515 265.670,27.046 265.519,26.759 265.519 C 26.296 265.519,26.296 265.556,26.759 265.856 M126.856 266.528 C 126.413 266.817,126.419 266.890,126.906 267.077 C 127.729 267.392,130.148 267.130,130.148 266.725 C 130.148 266.263,127.507 266.105,126.856 266.528 M34.752 267.785 C 35.613 268.056,36.551 268.268,36.838 268.257 C 37.681 268.222,35.010 267.299,34.057 267.296 C 33.462 267.293,33.682 267.448,34.752 267.785 M122.570 267.468 C 122.126 267.912,122.743 268.288,123.913 268.288 C 124.744 268.288,125.109 268.130,125.109 267.767 C 125.109 267.238,123.043 266.995,122.570 267.468 M39.270 268.781 C 39.939 269.054,41.112 269.269,41.877 269.258 L 43.267 269.238 41.703 268.962 C 40.843 268.810,39.670 268.596,39.096 268.485 C 38.121 268.296,38.132 268.315,39.270 268.781 M118.413 268.497 C 118.298 268.612,117.372 268.827,116.356 268.975 C 114.908 269.186,114.772 269.252,115.725 269.281 C 116.394 269.301,117.724 269.100,118.679 268.834 C 119.879 268.500,120.139 268.341,119.519 268.320 C 119.025 268.302,118.527 268.382,118.413 268.497 M43.962 269.679 C 44.344 269.843,44.970 269.977,45.352 269.977 L 46.047 269.977 45.352 269.679 C 44.970 269.514,44.344 269.380,43.962 269.380 L 43.267 269.380 43.962 269.679 M111.729 269.679 L 111.034 269.977 111.729 269.977 C 112.111 269.977,112.737 269.843,113.119 269.679 L 113.814 269.380 113.119 269.380 C 112.737 269.380,112.111 269.514,111.729 269.679 M48.132 270.390 C 49.088 270.537,50.573 270.744,51.434 270.850 L 52.997 271.043 51.260 270.568 C 50.304 270.307,48.818 270.100,47.958 270.108 L 46.394 270.124 48.132 270.390 M105.126 270.583 L 103.388 271.057 105.126 270.859 C 106.082 270.749,107.802 270.541,108.949 270.396 L 111.034 270.132 108.949 270.120 C 107.802 270.114,106.082 270.322,105.126 270.583 M56.125 271.428 C 56.890 271.581,58.766 271.792,60.295 271.895 L 63.076 272.083 60.122 271.606 C 58.497 271.344,56.620 271.134,55.951 271.139 L 54.735 271.149 56.125 271.428 M95.222 271.601 C 93.266 271.923,92.962 272.037,94.005 272.056 C 94.770 272.070,96.725 271.869,98.349 271.610 C 100.803 271.217,101.009 271.140,99.566 271.154 C 98.610 271.164,96.655 271.365,95.222 271.601 M72.374 272.558 C 75.440 272.773,79.116 272.773,82.626 272.559 C 88.032 272.228,87.976 272.224,77.845 272.223 C 68.193 272.222,67.873 272.242,72.374 272.558 " stroke="none" fill="#8fc4a5" fill-rule="evenodd"></path></g></svg>